<?xml version="1.0" encoding="UTF-8"?>
<svg width="18px" height="16px" viewBox="0 0 18 16" version="1.1" xmlns="http://www.w3.org/2000/svg" xmlns:xlink="http://www.w3.org/1999/xlink">
    <!-- Generator: sketchtool 56.3 (101010) - https://sketch.com -->
    <title>283A078E-6383-4A54-9B75-9A6A1EE7F1AE</title>
    <desc>Created with sketchtool.</desc>
    <g id="1.-Board" stroke="none" stroke-width="1" fill="none" fill-rule="evenodd">
        <g id="growth-advice-board-b-short" transform="translate(-1740.000000, -3291.000000)" fill="#F83660" fill-rule="nonzero">
            <g id="Organism/Nav/Footer" transform="translate(0.000000, 2955.000000)">
                <g id="Group-9">
                    <g transform="translate(0.000000, 315.000000)">
                        <g id="Group" transform="translate(1676.000000, 21.000000)">
                            <g id="vote-heart" transform="translate(64.000000, 0.000000)">
                                <g id="Filled_Icons">
                                    <path d="M13,0.001 C11.406,0.001 9.93,0.838 9,2.081 C8.07,0.838 6.594,0.001 5,0.001 C2.243,0.001 0,2.244 0,5.001 C0,10.492 8.124,15.633 8.471,15.849 C8.633,15.95 8.817,16.001 9,16.001 C9.183,16.001 9.367,15.95 9.529,15.849 C9.876,15.633 18,10.492 18,5.001 C18,2.244 15.757,0.001 13,0.001 Z" id="Shape-Copy-2"></path>
                                </g>
                            </g>
                        </g>
                    </g>
                </g>
            </g>
        </g>
    </g>
</svg>