<svg width="166" height="32" viewBox="0 0 166 32" fill="none" xmlns="http://www.w3.org/2000/svg">
<path fill-rule="evenodd" clip-rule="evenodd" d="M14 25H12.5C10.0198 25 8 22.9853 8 20.5V17.5064C8 17.0917 8.16835 16.7154 8.4406 16.4426C8.15827 15.8545 8 15.1957 8 14.5V11.5064C8 11.0917 8.16835 10.7154 8.4406 10.4426C8.15827 9.85451 8 9.19569 8 8.5V5.5064C8 4.67646 8.67444 4 9.5064 4H12.5C13.085 4 13.6444 4.11209 14.1577 4.316C14.6785 2.40513 16.4287 1 18.5 1H21.4936C22.3256 1 23 1.67646 23 2.5064V5.5C23 6.19569 22.8417 6.85452 22.5594 7.44259C22.8316 7.7154 23 8.09174 23 8.5064V11.5C23 12.1957 22.8417 12.8545 22.5594 13.4426C22.8316 13.7154 23 14.0917 23 14.5064V17.5C23 19.9853 20.9802 22 18.5 22H17V29.5001C17 30.3285 16.3342 31 15.5 31C14.6716 31 14 30.3311 14 29.5001V25V25ZM14 20.5C14 19.6739 13.3256 19 12.5 19H11V20.5C11 21.3262 11.6744 22 12.5 22H14V20.5ZM12.5 13C13.3256 13 14 13.6739 14 14.5V16H12.5C11.6744 16 11 15.3262 11 14.5V13H12.5ZM14 8.50004C14 7.67388 13.3256 7.00004 12.5 7.00004H11V8.50004C11 9.3262 11.6744 10 12.5 10H14V8.50004ZM17 7.00004V5.50004C17 4.67388 17.6744 4.00004 18.5 4.00004H20V5.50004C20 6.3262 19.3256 7.00004 18.5 7.00004H17ZM17 11.5V13H18.5C19.3256 13 20 12.3262 20 11.5V10H18.5C17.6744 10 17 10.6739 17 11.5ZM17 19V17.5C17 16.6739 17.6744 16 18.5 16H20V17.5C20 18.3262 19.3256 19 18.5 19H17Z" fill="white"/>
<path d="M44.6335 11.2166V13.1459C43.8988 11.8133 42.5925 11.0177 40.8372 11.0177C38.1431 11.0177 36 13.2055 36 15.9503C36 18.695 38.1431 20.9028 40.8372 20.9028C42.5925 20.9028 43.8988 20.1072 44.6335 18.7547V20.6641C44.6335 22.3547 43.2456 23.4685 41.4495 23.4685C39.8575 23.4685 38.5309 22.7326 38.4696 21.5392H36.6123C36.7348 24.0652 39.4085 25 41.5108 25C44.3886 25 46.5113 23.3094 46.5113 20.5845V11.2166H44.6335ZM41.225 19.1923C39.3269 19.1923 37.8369 17.7602 37.8369 15.9503C37.8369 14.1602 39.3269 12.7282 41.225 12.7282C43.1844 12.7282 44.6335 14.1006 44.6335 15.9503C44.6335 17.8199 43.1844 19.1923 41.225 19.1923Z" fill="white"/>
<path d="M53.5567 11.0376C52.3729 11.0376 51.4136 11.6541 50.8217 12.6287V11.2166H48.9235V20.9227H50.8217V15.453C50.8217 13.7624 52.0055 12.6884 53.4954 12.6884C53.822 12.6884 54.169 12.7481 54.4751 12.8475V11.1569C54.1894 11.0773 53.8628 11.0376 53.5567 11.0376Z" fill="white"/>
<path d="M59.8897 11.0177C56.9915 11.0177 54.7464 13.2254 54.7464 16.0895C54.7464 18.9337 56.9915 21.1215 59.8897 21.1215C62.7676 21.1215 65.0331 18.9337 65.0331 16.0895C65.0331 13.2254 62.7676 11.0177 59.8897 11.0177ZM59.8897 12.768C61.7471 12.768 63.1962 14.2 63.1962 16.0895C63.1962 17.9392 61.7471 19.3713 59.8897 19.3713C58.012 19.3713 56.5833 17.9392 56.5833 16.0895C56.5833 14.2 58.012 12.768 59.8897 12.768Z" fill="white"/>
<path d="M69.1463 20.9227H70.6362L73.2487 13.9613L75.8408 20.9227H77.3512L80.9842 11.2166H78.9636L76.596 18.1779L74.0039 11.2166H72.4731L69.9219 18.1779L67.5339 11.2166H65.5337L69.1463 20.9227Z" fill="white"/>
<path d="M87.8647 12.9669V11.2166H85.1706V8.59116H83.2928V11.2166H81.3538V12.9669H83.2928V17.4818C83.2928 19.8486 84.6807 21.042 86.783 21.042C87.13 21.042 87.5586 21.0022 87.8647 20.9227V19.232C87.6606 19.2917 87.3953 19.3116 87.1708 19.3116C85.987 19.3116 85.1706 18.7945 85.1706 17.442V12.9669H87.8647Z" fill="white"/>
<path d="M94.6875 11.0177C93.2588 11.0177 92.1362 11.7138 91.5035 12.9072V7H89.6053V20.9227H91.5035V15.5724C91.5035 13.8818 92.5852 12.768 94.2589 12.768C95.9121 12.768 96.9734 13.8818 96.9734 15.5724V20.9227H98.8512V15.3735C98.8512 12.6884 97.2592 11.0177 94.6875 11.0177Z" fill="white"/>
<path d="M112.588 10.958C111.322 10.958 110.159 11.5547 109.567 12.3901C108.955 11.3757 108.036 10.958 106.73 10.958C105.812 10.958 104.628 11.2564 103.873 12.3304V11.1569H100.995V20.9227H103.873V15.5127C103.873 14.2398 104.71 13.6431 105.648 13.6431C106.71 13.6431 107.383 14.3591 107.383 15.5127V20.9227H110.261V15.5127C110.261 14.2597 111.118 13.6431 112.078 13.6431C113.119 13.6431 113.792 14.3591 113.792 15.5127V20.9227H116.69V14.8564C116.69 12.4895 114.976 10.958 112.588 10.958Z" fill="white"/>
<path d="M128.226 15.7116C128.226 13.0265 126.001 10.958 123.286 10.958C120.368 10.958 118.082 13.1459 118.082 15.9901C118.082 18.874 120.388 21.1215 123.347 21.1215C125.858 21.1215 127.756 19.7492 128.083 17.6409H125.266C125.103 18.3171 124.388 18.7945 123.266 18.7945C121.919 18.7945 120.919 17.979 120.715 16.7061H128.164C128.205 16.3878 128.226 15.9304 128.226 15.7116ZM120.857 14.916C121.204 13.7624 122.062 13.2254 123.164 13.2254C124.225 13.2254 125.144 13.9215 125.225 14.916H120.857Z" fill="white"/>
<path d="M135.22 10.958C134.077 10.958 133.138 11.495 132.505 12.4298V11.1569H129.627V20.9227H132.505V15.7514C132.505 14.4785 133.281 13.6431 134.485 13.6431C135.669 13.6431 136.465 14.4785 136.465 15.7514V20.9227H139.343V15.3934C139.343 12.6287 137.792 10.958 135.22 10.958Z" fill="white"/>
<path d="M147.233 13.8221V11.1569H144.763V8.59116H141.885V11.1569H140.028V13.8221H141.885V16.9448C141.885 19.5702 143.477 21.0818 145.845 21.0818C146.253 21.0818 146.845 21.0221 147.233 20.9227V18.337C147.008 18.3967 146.743 18.4166 146.498 18.4166C145.498 18.4166 144.763 17.9591 144.763 16.905V13.8221H147.233Z" fill="white"/>
<path d="M152.951 10.958C149.991 10.958 147.746 13.1459 147.746 16.0497C147.746 18.9536 149.991 21.1215 152.951 21.1215C155.89 21.1215 158.155 18.9536 158.155 16.0497C158.155 13.1459 155.89 10.958 152.951 10.958ZM152.951 13.6431C154.298 13.6431 155.339 14.6575 155.339 16.0497C155.339 17.4022 154.298 18.4365 152.951 18.4365C151.583 18.4365 150.563 17.4022 150.563 16.0497C150.563 14.6575 151.583 13.6431 152.951 13.6431Z" fill="white"/>
<path d="M165.041 10.958C163.918 10.958 163.041 11.4354 162.449 12.2707V11.1569H159.571V20.9227H162.449V16.1094C162.449 14.2994 163.571 13.484 164.959 13.484C165.306 13.484 165.653 13.5436 166 13.6232V11.0773C165.673 11.0177 165.347 10.958 165.041 10.958Z" fill="white"/>
</svg>
