<?xml version="1.0"?>
<svg xmlns="http://www.w3.org/2000/svg" width="30" height="30" viewBox="0 0 30 30" fill="none">
<g clip-path="url(#clip0_109_1853)">
<path d="M28.9341 11.8388L27.9504 10.5C27.2687 9.57241 26.3789 8.81774 25.3524 8.2967C24.3259 7.77565 23.1915 7.50277 22.0404 7.5H7.97914C6.85167 7.50294 5.73993 7.7647 4.72958 8.26511C3.71924 8.76551 2.83727 9.4912 2.15164 10.3863L1.12539 11.7288C0.292245 12.8279 -0.0994716 14.199 0.027294 15.5723C0.15406 16.9457 0.790131 18.2219 1.81039 19.15L11.7979 28.7838C12.6751 29.566 13.81 29.9973 14.9854 29.995C16.1857 29.9926 17.3429 29.5476 18.2354 28.745L28.1554 19.2038C29.1815 18.2951 29.8305 17.0354 29.9746 15.6724C30.1187 14.3094 29.7475 12.9419 28.9341 11.8388V11.8388ZM25.9341 11.9725L26.9179 13.315C27.0167 13.4524 27.1037 13.5979 27.1779 13.75H21.1891C21.0987 13.1514 20.9427 12.5646 20.7241 12L19.9241 10H22.0404C22.7984 10.0014 23.5456 10.1806 24.2218 10.5232C24.8981 10.8658 25.4845 11.3622 25.9341 11.9725ZM14.9879 25.11L11.5266 17.2725C11.4015 16.941 11.3069 16.5987 11.2441 16.25H18.6841C18.6317 16.5248 18.5582 16.7952 18.4641 17.0588L14.9879 25.11ZM11.3754 13.75C11.4277 13.5259 11.4932 13.3051 11.5716 13.0888L12.8016 10H17.2316L18.4029 12.9288C18.5057 13.1962 18.5893 13.4706 18.6529 13.75H11.3754ZM4.13914 11.9013C4.5911 11.3117 5.17231 10.8337 5.83805 10.5041C6.50378 10.1745 7.23628 10.002 7.97914 10H10.1041L9.25039 12.1613C9.04441 12.6741 8.89072 13.2063 8.79164 13.75H2.80664C2.89238 13.5733 2.99583 13.4058 3.11539 13.25L4.13914 11.9013ZM3.51414 17.3175C3.18805 17.0217 2.93186 16.6571 2.76414 16.25H8.72914C8.81204 16.9235 8.97442 17.5847 9.21289 18.22L12.7466 26.22L3.51414 17.3175ZM17.2141 26.2675L20.7816 18C20.9887 17.4342 21.1329 16.8473 21.2116 16.25H27.2504C27.0735 16.6791 26.8032 17.0634 26.4591 17.375L17.2141 26.2675Z" fill="#7630F5"/>
<path d="M15 5C15.3315 5 15.6495 4.8683 15.8839 4.63388C16.1183 4.39946 16.25 4.08152 16.25 3.75V1.25C16.25 0.918479 16.1183 0.600537 15.8839 0.366117C15.6495 0.131696 15.3315 0 15 0C14.6685 0 14.3505 0.131696 14.1161 0.366117C13.8817 0.600537 13.75 0.918479 13.75 1.25V3.75C13.75 4.08152 13.8817 4.39946 14.1161 4.63388C14.3505 4.8683 14.6685 5 15 5Z" fill="#7630F5"/>
<path d="M20.6914 4.87503C20.839 4.94924 20.9998 4.99345 21.1646 5.00513C21.3294 5.0168 21.4948 4.9957 21.6514 4.94305C21.808 4.89039 21.9525 4.80723 22.0768 4.69836C22.201 4.58949 22.3024 4.45708 22.3752 4.30878L23.6252 1.80878C23.7734 1.51207 23.7976 1.16865 23.6926 0.854054C23.5876 0.539462 23.3619 0.279474 23.0652 0.131284C22.7685 -0.0169058 22.425 -0.041158 22.1104 0.0638623C21.7959 0.168883 21.5359 0.394573 21.3877 0.691284L20.1377 3.19128C20.063 3.33811 20.0181 3.49825 20.0056 3.66248C19.993 3.82671 20.0131 3.99181 20.0645 4.14828C20.116 4.30474 20.1979 4.4495 20.3054 4.57422C20.413 4.69894 20.5442 4.80117 20.6914 4.87503V4.87503Z" fill="#7630F5"/>
<path d="M7.63138 4.30878C7.77957 4.60632 8.03989 4.83281 8.35507 4.93841C8.67025 5.04402 9.01447 5.0201 9.31201 4.87191C9.60955 4.72372 9.83603 4.4634 9.94164 4.14822C10.0472 3.83304 10.0233 3.48882 9.87513 3.19128L8.62513 0.691284C8.55176 0.544368 8.45016 0.413342 8.32615 0.305689C8.20213 0.198036 8.05813 0.115863 7.90236 0.0638623C7.58777 -0.041158 7.24434 -0.0169058 6.94763 0.131284C6.65092 0.279474 6.42523 0.539462 6.32021 0.854054C6.21519 1.16865 6.23944 1.51207 6.38763 1.80878L7.63138 4.30878Z" fill="#7630F5"/>
</g>
<defs>
<clipPath id="clip0_109_1853">
<rect width="30" height="30" fill="white"/>
</clipPath>
</defs>
</svg>
