<?xml version="1.0"?>
<svg width="197" height="84" viewBox="0 0 197 84" fill="none" xmlns="http://www.w3.org/2000/svg">
    <path fill-rule="evenodd" clip-rule="evenodd" d="M96.5 35H95C92.5198 35 90.5 32.9853 90.5 30.5V27.5064C90.5 27.0917 90.6684 26.7154 90.9406 26.4426C90.6583 25.8545 90.5 25.1957 90.5 24.5V21.5064C90.5 21.0917 90.6684 20.7154 90.9406 20.4426C90.6583 19.8545 90.5 19.1957 90.5 18.5V15.5064C90.5 14.6765 91.1744 14 92.0064 14H95C95.585 14 96.1444 14.1121 96.6577 14.316C97.1785 12.4051 98.9287 11 101 11H103.994C104.826 11 105.5 11.6765 105.5 12.5064V15.5C105.5 16.1957 105.342 16.8545 105.059 17.4426C105.332 17.7154 105.5 18.0917 105.5 18.5064V21.5C105.5 22.1957 105.342 22.8545 105.059 23.4426C105.332 23.7154 105.5 24.0917 105.5 24.5064V27.5C105.5 29.9853 103.48 32 101 32H99.5V39.5001C99.5 40.3285 98.8342 41 98 41C97.1716 41 96.5 40.3311 96.5 39.5001V35V35ZM96.5 30.5C96.5 29.6739 95.8256 29 95 29H93.5V30.5C93.5 31.3262 94.1744 32 95 32H96.5V30.5ZM95 23C95.8256 23 96.5 23.6739 96.5 24.5V26H95C94.1744 26 93.5 25.3262 93.5 24.5V23H95ZM96.5 18.5C96.5 17.6739 95.8256 17 95 17H93.5V18.5C93.5 19.3262 94.1744 20 95 20H96.5V18.5ZM99.5 17V15.5C99.5 14.6739 100.174 14 101 14H102.5V15.5C102.5 16.3262 101.826 17 101 17H99.5ZM99.5 21.5V23H101C101.826 23 102.5 22.3262 102.5 21.5V20H101C100.174 20 99.5 20.6739 99.5 21.5ZM99.5 29V27.5C99.5 26.6739 100.174 26 101 26H102.5V27.5C102.5 28.3262 101.826 29 101 29H99.5Z" fill="#813CFF"/>
    <path d="M37.06 70.16C38.76 70.16 40.3 69.44 40.92 68.3V70H43.38V62.52H36.7V64.72H40.86C40.72 66.54 39.3 67.8 37.18 67.8C34.72 67.8 32.94 66.06 32.94 63C32.94 59.94 34.72 58.18 37.22 58.18C39.1 58.18 40.5 59.3 40.84 61.06L43.52 60.5C42.98 57.6 40.6 55.84 37.24 55.84C33.58 55.84 30.2 58.22 30.2 63C30.2 67.78 33.5 70.16 37.06 70.16ZM52.2591 62.36L52.4191 59.92C52.1191 59.82 51.6791 59.76 51.3191 59.76C50.0991 59.76 48.7791 60.62 48.2791 61.76V59.92H45.7591V70H48.2791V66.3C48.2791 63.3 49.5591 62.12 50.9791 62.12C51.4191 62.12 51.8991 62.2 52.2591 62.36ZM58.2525 70.16C61.3125 70.16 63.5125 67.96 63.5125 64.96C63.5125 61.96 61.3125 59.76 58.2525 59.76C55.1925 59.76 52.9925 61.96 52.9925 64.96C52.9925 67.96 55.1925 70.16 58.2525 70.16ZM58.2525 67.98C56.6125 67.98 55.5325 66.76 55.5325 64.96C55.5325 63.16 56.6125 61.94 58.2525 61.94C59.8725 61.94 60.9725 63.16 60.9725 64.96C60.9725 66.76 59.8725 67.98 58.2525 67.98ZM67.3964 70H69.6364L71.7164 63.42L73.7564 70H76.0164L79.1364 59.92H76.5964L74.8764 66.48L72.8564 59.92H70.5564L68.5364 66.48L66.7964 59.92H64.2564L67.3964 70ZM86.7781 69.9L86.5981 67.7C86.2381 67.88 85.7981 67.94 85.4181 67.94C84.6381 67.94 84.1181 67.42 84.1181 66.46V62.04H86.6581V59.92H84.1181V56.96H81.5981V59.92H79.8981V62.04H81.5981V66.7C81.5981 69.06 83.1181 70.16 85.1581 70.16C85.7381 70.16 86.2781 70.08 86.7781 69.9ZM89.0208 70H91.5408V65.62C91.5408 63.34 92.4208 62 93.9808 62C95.2208 62 95.9808 62.78 95.9808 64.02V70H98.5008V63.4C98.5008 61.2 97.0008 59.76 94.7408 59.76C93.3408 59.76 92.2008 60.38 91.5408 61.48V55.84H89.0208V70ZM101.035 70H103.595V61.06L107.355 70H109.395L113.155 61.06V70H115.715V56H112.655L108.375 66.14L104.095 56H101.035V70ZM127.759 64.62C127.759 62.28 126.099 59.76 122.699 59.76C119.359 59.76 117.719 62.34 117.719 64.96C117.719 67.58 119.499 70.16 122.839 70.16C125.199 70.16 126.959 69.04 127.519 67.14L125.159 66.5C124.899 67.48 124.059 68.04 122.879 68.04C121.439 68.04 120.459 67.14 120.239 65.62H127.719C127.739 65.42 127.759 64.98 127.759 64.62ZM120.299 63.78C120.579 62.42 121.459 61.68 122.699 61.68C124.159 61.68 124.939 62.58 125.059 63.78H120.299ZM129.665 70H132.185V65.58C132.185 63.32 133.085 62 134.625 62C135.805 62 136.545 62.82 136.545 64V70H139.065V63.4C139.065 61.2 137.585 59.76 135.385 59.76C133.965 59.76 132.825 60.46 132.185 61.44V59.92H129.665V70ZM147.149 69.9L146.969 67.7C146.609 67.88 146.169 67.94 145.789 67.94C145.009 67.94 144.489 67.42 144.489 66.46V62.04H147.029V59.92H144.489V56.96H141.969V59.92H140.269V62.04H141.969V66.7C141.969 69.06 143.489 70.16 145.529 70.16C146.109 70.16 146.649 70.08 147.149 69.9ZM153.409 70.16C156.469 70.16 158.669 67.96 158.669 64.96C158.669 61.96 156.469 59.76 153.409 59.76C150.349 59.76 148.149 61.96 148.149 64.96C148.149 67.96 150.349 70.16 153.409 70.16ZM153.409 67.98C151.769 67.98 150.689 66.76 150.689 64.96C150.689 63.16 151.769 61.94 153.409 61.94C155.029 61.94 156.129 63.16 156.129 64.96C156.129 66.76 155.029 67.98 153.409 67.98ZM167.064 62.36L167.224 59.92C166.924 59.82 166.484 59.76 166.124 59.76C164.904 59.76 163.584 60.62 163.084 61.76V59.92H160.564V70H163.084V66.3C163.084 63.3 164.364 62.12 165.784 62.12C166.224 62.12 166.704 62.2 167.064 62.36Z" fill="#141F2F"/>
</svg>
