<?xml version="1.0" encoding="UTF-8"?>
<svg xmlns="http://www.w3.org/2000/svg" width="16" height="16" viewBox="0 0 16 16" fill="none">
  <g clip-path="url(#clip0_1943_15094)">
    <path d="M8 -0.0229492C3.6 -0.0229492 0 3.07705 0 6.97705C0 10.8771 3.6 13.9771 8 13.9771C8.36959 13.9982 8.74028 13.9645 9.1 13.8771L14 15.9771V11.5771C14.621 10.9806 15.1174 10.267 15.4607 9.47738C15.804 8.68779 15.9873 7.83795 16 6.97705C16 3.07705 12.4 -0.0229492 8 -0.0229492ZM10.941 7.63305L8 10.5391L5.059 7.63305L5.038 7.61205C4.86563 7.43694 4.72945 7.22959 4.63722 7.00184C4.54499 6.77409 4.49852 6.53041 4.50047 6.2847C4.50242 6.03899 4.55275 5.79608 4.64858 5.56982C4.74441 5.34357 4.88387 5.13841 5.059 4.96605C5.14229 4.88455 5.23265 4.81059 5.329 4.74505C5.53806 4.60333 5.77298 4.50418 6.02036 4.45326C6.26774 4.40234 6.52273 4.40065 6.77076 4.44829C7.01879 4.49592 7.25501 4.59196 7.46593 4.7309C7.67684 4.86984 7.85832 5.04896 8 5.25805C8.06522 5.16236 8.13885 5.07267 8.22 4.99005C8.57776 4.62626 9.06532 4.41938 9.57553 4.41488C10.0857 4.41038 10.5769 4.60862 10.941 4.96605L10.962 4.98805C11.1343 5.16308 11.2705 5.37035 11.3627 5.59801C11.4549 5.82567 11.5014 6.06928 11.4994 6.3149C11.4975 6.56052 11.4472 6.80336 11.3514 7.02953C11.2555 7.2557 11.1161 7.46078 10.941 7.63305Z" fill="#6938EF"></path>
  </g>
  <defs>
    <clipPath id="clip0_1943_15094">
      <rect width="16" height="16" fill="white"></rect>
    </clipPath>
  </defs>
</svg>
