<?xml version="1.0" encoding="UTF-8"?>
<svg xmlns="http://www.w3.org/2000/svg" width="16" height="16" viewBox="0 0 16 16" fill="none">
  <g clip-path="url(#clip0_1943_14603)">
    <path d="M8 10C10.2 10 12 8.2 12 6V4C12 1.8 10.2 0 8 0C5.8 0 4 1.8 4 4V6C4 8.2 5.8 10 8 10Z" fill="#BDB4FE"></path>
    <path d="M15.8999 7.10005C15.9999 6.60005 15.5999 6.10005 15.0999 6.00005C14.5999 5.90005 13.9999 6.30005 13.9999 6.80005C13.4999 9.80005 10.9999 12 7.9999 12C4.9999 12 2.4999 9.80005 2.0999 6.90005C1.9999 6.30005 1.4999 5.90005 0.899899 6.00005C0.399899 6.10005 -0.000101224 6.60005 0.0998988 7.10005C0.599899 10.7 3.4999 13.4 6.9999 13.9V16H8.9999V13.9C12.4999 13.5 15.3999 10.7 15.8999 7.10005Z" fill="#6938EF"></path>
  </g>
  <defs>
    <clipPath id="clip0_1943_14603">
      <rect width="16" height="16" fill="white"></rect>
    </clipPath>
  </defs>
</svg>
