<?xml version="1.0" encoding="UTF-8"?>
<svg xmlns="http://www.w3.org/2000/svg" width="16" height="16" viewBox="0 0 16 16" fill="none">
  <g clip-path="url(#clip0_1943_15077)">
    <path d="M2.75 5C3.7165 5 4.5 4.2165 4.5 3.25C4.5 2.2835 3.7165 1.5 2.75 1.5C1.7835 1.5 1 2.2835 1 3.25C1 4.2165 1.7835 5 2.75 5Z" fill="#6938EF"></path>
    <path d="M13.25 5C14.2165 5 15 4.2165 15 3.25C15 2.2835 14.2165 1.5 13.25 1.5C12.2835 1.5 11.5 2.2835 11.5 3.25C11.5 4.2165 12.2835 5 13.25 5Z" fill="#D9D6FE"></path>
    <path d="M13.5 6C12.8077 6.06448 12.1379 6.27981 11.5377 6.63087C10.9375 6.98192 10.4215 7.46017 10.026 8.032C9.7597 8.34721 9.46551 8.63772 9.14697 8.9C9.32785 9.1114 9.4529 9.36473 9.51072 9.63688C9.56854 9.90903 9.55728 10.1913 9.47797 10.458C10.0614 10.1365 10.578 9.70646 11 9.191V14C11 14.2652 11.1053 14.5196 11.2929 14.7071C11.4804 14.8946 11.7348 15 12 15H15C15.2652 15 15.5195 14.8946 15.7071 14.7071C15.8946 14.5196 16 14.2652 16 14V8.5C16 7.83696 15.7366 7.20107 15.2677 6.73223C14.7989 6.26339 14.163 6 13.5 6Z" fill="#D9D6FE"></path>
    <path d="M7.8 9.25C7.107 9.25 6.656 8.787 5.977 8.032C5.58113 7.4598 5.06466 6.98133 4.46393 6.63026C3.86321 6.27919 3.19283 6.06406 2.5 6C1.83696 6 1.20107 6.26339 0.732233 6.73223C0.263392 7.20107 0 7.83696 0 8.5L0 14C0 14.2652 0.105357 14.5196 0.292893 14.7071C0.48043 14.8946 0.734784 15 1 15H4C4.26522 15 4.51957 14.8946 4.70711 14.7071C4.89464 14.5196 5 14.2652 5 14V9.191C5.32087 9.64326 5.73886 10.018 6.22335 10.2878C6.70784 10.5575 7.24655 10.7155 7.8 10.75C7.99891 10.75 8.18968 10.671 8.33033 10.5303C8.47098 10.3897 8.55 10.1989 8.55 10C8.55 9.80109 8.47098 9.61032 8.33033 9.46967C8.18968 9.32902 7.99891 9.25 7.8 9.25Z" fill="#6938EF"></path>
  </g>
  <defs>
    <clipPath id="clip0_1943_15077">
      <rect width="16" height="16" fill="white"></rect>
    </clipPath>
  </defs>
</svg>
