<svg width="1920" height="1286" viewBox="0 0 1920 1286" fill="none" xmlns="http://www.w3.org/2000/svg">
<g clip-path="url(#clip0_1016_14539)">
<path d="M1920 0H0V815H1920V0Z" fill="white"/>
<mask id="mask0_1016_14539" style="mask-type:alpha" maskUnits="userSpaceOnUse" x="0" y="0" width="1920" height="1534">
<path d="M1920 0H0V1534H1920V0Z" fill="#C4C4C4"/>
</mask>
<g mask="url(#mask0_1016_14539)">
<g filter="url(#filter0_f_1016_14539)">
<path d="M2588 126.111L1787.33 433.05L1744.67 133.451L1555.33 57.384L1170.67 265.568L908.667 938.163L20 818.724" stroke="url(#paint0_linear_1016_14539)" stroke-width="160" stroke-linejoin="round"/>
</g>
<g opacity="0.8" filter="url(#filter1_f_1016_14539)">
<path opacity="0.8" d="M2200.67 480.425L1608 787.363L1528.67 659.917L1267.33 559.161L1101.33 665.255L871.999 574.508L790.666 647.906L564.666 622.55L104.666 966.855" stroke="url(#paint1_linear_1016_14539)" stroke-width="240" stroke-linejoin="round"/>
</g>
<g filter="url(#filter2_if_1016_14539)">
<path d="M1899.37 992.581C1757.48 1216.66 1460.96 1283.18 1237.07 1141.16C1013.19 999.137 946.727 702.351 1088.62 478.27C1230.52 254.189 1527.04 187.668 1750.93 329.691C1974.81 471.713 2041.27 768.5 1899.37 992.581Z" fill="url(#paint2_linear_1016_14539)" fill-opacity="0.8"/>
</g>
<g filter="url(#filter3_f_1016_14539)">
<path d="M1811.33 1004.57C2103.68 1004.57 2340.67 861.171 2340.67 684.283C2340.67 507.396 2103.68 364 1811.33 364C1518.99 364 1282 507.396 1282 684.283C1282 861.171 1518.99 1004.57 1811.33 1004.57Z" fill="white" fill-opacity="0.2"/>
</g>
<g filter="url(#filter4_f_1016_14539)">
<path d="M1205.33 467.08C1941.71 467.08 2538.67 276.483 2538.67 41.3699C2538.67 -193.743 1941.71 -384.34 1205.33 -384.34C468.954 -384.34 -128 -193.743 -128 41.3699C-128 276.483 468.954 467.08 1205.33 467.08Z" fill="white"/>
</g>
<g filter="url(#filter5_f_1016_14539)">
<path d="M240 647.239C643.536 647.239 970.666 502.35 970.666 323.619C970.666 144.889 643.536 0 240 0C-163.536 0 -490.667 144.889 -490.667 323.619C-490.667 502.35 -163.536 647.239 240 647.239Z" fill="white"/>
</g>
</g>
</g>
<defs>
<filter id="filter0_f_1016_14539" x="-110.656" y="-142.616" width="2847.29" height="1280.78" filterUnits="userSpaceOnUse" color-interpolation-filters="sRGB">
<feFlood flood-opacity="0" result="BackgroundImageFix"/>
<feBlend mode="normal" in="SourceGraphic" in2="BackgroundImageFix" result="shape"/>
<feGaussianBlur stdDeviation="60" result="effect1_foregroundBlur_1016_14539"/>
</filter>
<filter id="filter1_f_1016_14539" x="-87.2412" y="253.867" width="2463.09" height="929.058" filterUnits="userSpaceOnUse" color-interpolation-filters="sRGB">
<feFlood flood-opacity="0" result="BackgroundImageFix"/>
<feBlend mode="normal" in="SourceGraphic" in2="BackgroundImageFix" result="shape"/>
<feGaussianBlur stdDeviation="60" result="effect1_foregroundBlur_1016_14539"/>
</filter>
<filter id="filter2_if_1016_14539" x="894" y="135" width="1200" height="1200.85" filterUnits="userSpaceOnUse" color-interpolation-filters="sRGB">
<feFlood flood-opacity="0" result="BackgroundImageFix"/>
<feBlend mode="normal" in="SourceGraphic" in2="BackgroundImageFix" result="shape"/>
<feColorMatrix in="SourceAlpha" type="matrix" values="0 0 0 0 0 0 0 0 0 0 0 0 0 0 0 0 0 0 127 0" result="hardAlpha"/>
<feOffset dy="3"/>
<feGaussianBlur stdDeviation="5"/>
<feComposite in2="hardAlpha" operator="arithmetic" k2="-1" k3="1"/>
<feColorMatrix type="matrix" values="0 0 0 0 1 0 0 0 0 1 0 0 0 0 1 0 0 0 0.25 0"/>
<feBlend mode="normal" in2="shape" result="effect1_innerShadow_1016_14539"/>
<feGaussianBlur stdDeviation="60" result="effect2_foregroundBlur_1016_14539"/>
</filter>
<filter id="filter3_f_1016_14539" x="1042" y="124" width="1538.67" height="1120.57" filterUnits="userSpaceOnUse" color-interpolation-filters="sRGB">
<feFlood flood-opacity="0" result="BackgroundImageFix"/>
<feBlend mode="normal" in="SourceGraphic" in2="BackgroundImageFix" result="shape"/>
<feGaussianBlur stdDeviation="120" result="effect1_foregroundBlur_1016_14539"/>
</filter>
<filter id="filter4_f_1016_14539" x="-392" y="-648.34" width="3194.67" height="1379.42" filterUnits="userSpaceOnUse" color-interpolation-filters="sRGB">
<feFlood flood-opacity="0" result="BackgroundImageFix"/>
<feBlend mode="normal" in="SourceGraphic" in2="BackgroundImageFix" result="shape"/>
<feGaussianBlur stdDeviation="132" result="effect1_foregroundBlur_1016_14539"/>
</filter>
<filter id="filter5_f_1016_14539" x="-890.667" y="-400" width="2261.33" height="1447.24" filterUnits="userSpaceOnUse" color-interpolation-filters="sRGB">
<feFlood flood-opacity="0" result="BackgroundImageFix"/>
<feBlend mode="normal" in="SourceGraphic" in2="BackgroundImageFix" result="shape"/>
<feGaussianBlur stdDeviation="200" result="effect1_foregroundBlur_1016_14539"/>
</filter>
<linearGradient id="paint0_linear_1016_14539" x1="1632" y1="-264.234" x2="455.604" y2="937.123" gradientUnits="userSpaceOnUse">
<stop stop-color="#8590FF" stop-opacity="0.9"/>
<stop offset="0.430671" stop-color="#B59BFF"/>
<stop offset="0.699594" stop-color="#FFE0D9" stop-opacity="0.1"/>
<stop offset="1" stop-color="#FF96BC" stop-opacity="0"/>
</linearGradient>
<linearGradient id="paint1_linear_1016_14539" x1="1879.33" y1="370.993" x2="122.42" y2="885.943" gradientUnits="userSpaceOnUse">
<stop stop-color="#D5C5F1"/>
<stop offset="0.463401" stop-color="#F55872" stop-opacity="0.06"/>
<stop offset="0.541326" stop-color="#F7EDFF"/>
<stop offset="0.637118" stop-color="#FFE0D9" stop-opacity="0.4"/>
<stop offset="1" stop-color="#C4D6FF" stop-opacity="0.5"/>
</linearGradient>
<linearGradient id="paint2_linear_1016_14539" x1="1821.33" y1="298.372" x2="1078.75" y2="1018.99" gradientUnits="userSpaceOnUse">
<stop offset="0.0227867" stop-color="#8590FF" stop-opacity="0.2"/>
<stop offset="0.50488" stop-color="#B59BFF" stop-opacity="0.3"/>
<stop offset="0.922209" stop-color="#FFE0D9" stop-opacity="0.4"/>
</linearGradient>
<clipPath id="clip0_1016_14539">
<rect width="1920" height="1286" fill="white"/>
</clipPath>
</defs>
</svg>
