<?xml version="1.0" encoding="UTF-8"?>
<svg xmlns="http://www.w3.org/2000/svg" width="16" height="16" viewBox="0 0 16 16" fill="none">
  <g clip-path="url(#clip0_1943_14618)">
    <path d="M15.0002 3.99999H1.00024C0.866825 3.99197 0.733227 4.01235 0.608267 4.05976C0.483307 4.10718 0.369827 4.18057 0.275319 4.27507C0.180811 4.36958 0.107426 4.48306 0.060008 4.60802C0.01259 4.73298 -0.00778171 4.86658 0.000237932 4.99999V15C-0.00778171 15.1334 0.01259 15.267 0.060008 15.392C0.107426 15.5169 0.180811 15.6304 0.275319 15.7249C0.369827 15.8194 0.483307 15.8928 0.608267 15.9402C0.733227 15.9876 0.866825 16.008 1.00024 16H15.0002C15.1337 16.008 15.2672 15.9876 15.3922 15.9402C15.5172 15.8928 15.6306 15.8194 15.7252 15.7249C15.8197 15.6304 15.8931 15.5169 15.9405 15.392C15.9879 15.267 16.0083 15.1334 16.0002 15V4.99999C16.0083 4.86658 15.9879 4.73298 15.9405 4.60802C15.8931 4.48306 15.8197 4.36958 15.7252 4.27507C15.6306 4.18057 15.5172 4.10718 15.3922 4.05976C15.2672 4.01235 15.1337 3.99197 15.0002 3.99999ZM6.00024 13V6.99999L11.0002 9.99999L6.00024 13Z" fill="#BDB4FE"></path>
    <path d="M3 0H13C13.2652 0 13.5196 0.105357 13.7071 0.292893C13.8946 0.48043 14 0.734784 14 1V2H2V1C2 0.734784 2.10536 0.48043 2.29289 0.292893C2.48043 0.105357 2.73478 0 3 0Z" fill="#6938EF"></path>
  </g>
  <defs>
    <clipPath id="clip0_1943_14618">
      <rect width="16" height="16" fill="white"></rect>
    </clipPath>
  </defs>
</svg>
