<?xml version="1.0"?>
<svg width="15" height="14" viewBox="0 0 15 14" fill="none" xmlns="http://www.w3.org/2000/svg">
    <path d="M14.45 0.3C14.05 -0.1 13.45 -0.1 13.05 0.3L7.75 5.6L2.45 0.3C2.05 -0.1 1.45 -0.1 1.05 0.3C0.65 0.7 0.65 1.3 1.05 1.7L6.35 7L1.05 12.3C0.65 12.7 0.65 13.3 1.05 13.7C1.25 13.9 1.45 14 1.75 14C2.05 14 2.25 13.9 2.45 13.7L7.75 8.4L13.05 13.7C13.25 13.9 13.55 14 13.75 14C13.95 14 14.25 13.9 14.45 13.7C14.85 13.3 14.85 12.7 14.45 12.3L9.15 7L14.45 1.7C14.85 1.3 14.85 0.7 14.45 0.3Z" fill="#98A2B3"/>
</svg>
