<?xml version="1.0" encoding="UTF-8"?>
<svg xmlns="http://www.w3.org/2000/svg" width="32" height="32" viewBox="0 0 32 32" fill="none">
  <path d="M7.5 10.5C7.5 11.0523 7.05228 11.5 6.5 11.5C5.94772 11.5 5.5 11.0523 5.5 10.5C5.5 9.94772 5.94772 9.5 6.5 9.5C7.05228 9.5 7.5 9.94772 7.5 10.5Z" fill="#5138EE" stroke="#A091FF"></path>
  <path d="M22 12V8C22 7.20435 21.6839 6.44129 21.1213 5.87868C20.5587 5.31607 19.7956 5 19 5H4C3.20435 5 2.44129 5.31607 1.87868 5.87868C1.31607 6.44129 1 7.20435 1 8V24C1 24.7956 1.31607 25.5587 1.87868 26.1213C2.44129 26.6839 3.20435 27 4 27H19C19.7956 27 20.5587 26.6839 21.1213 26.1213C21.6839 25.5587 22 24.7956 22 24V20L31 24V8L22 12Z" stroke="#5138EE" stroke-width="2" stroke-linecap="round" stroke-linejoin="round"></path>
</svg>
