<?xml version="1.0" encoding="UTF-8"?>
<svg xmlns="http://www.w3.org/2000/svg" width="299" height="64" viewBox="0 0 299 64" fill="none">
  <path fill-rule="evenodd" clip-rule="evenodd" d="M29 50H26C21.0395 50 17 45.9706 17 41V35.0128C17 34.1835 17.3367 33.4308 17.8812 32.8852C17.3165 31.709 17 30.3914 17 29V23.0128C17 22.1835 17.3367 21.4308 17.8812 20.8852C17.3165 19.709 17 18.3914 17 17V11.0128C17 9.35293 18.3489 8 20.0128 8H26C27.17 8 28.2888 8.22418 29.3154 8.63201C30.3571 4.81025 33.8574 2 38 2H43.9872C45.6511 2 47 3.35292 47 5.01279V11C47 12.3914 46.6835 13.709 46.1188 14.8852C46.6633 15.4308 47 16.1835 47 17.0128V23C47 24.3914 46.6835 25.709 46.1188 26.8852C46.6633 27.4308 47 28.1835 47 29.0128V35C47 39.9706 42.9605 44 38 44H35V59.0001C35 60.6569 33.6684 62 32 62C30.3431 62 29 60.6621 29 59.0001V50V50ZM29 41.0001C29 39.3478 27.6513 38.0001 26 38.0001H23V41.0001C23 42.6524 24.3487 44.0001 26 44.0001H29V41.0001ZM26 26.0001C27.6513 26.0001 29 27.3478 29 29.0001V32.0001H26C24.3487 32.0001 23 30.6524 23 29.0001V26.0001H26ZM29 17.0001C29 15.3478 27.6513 14.0001 26 14.0001H23V17.0001C23 18.6524 24.3487 20.0001 26 20.0001H29V17.0001ZM35 14.0001V11.0001C35 9.34779 36.3487 8.00011 38 8.00011H41V11.0001C41 12.6524 39.6513 14.0001 38 14.0001H35ZM35 23.0001V26.0001H38C39.6513 26.0001 41 24.6524 41 23.0001V20.0001H38C36.3487 20.0001 35 21.3478 35 23.0001ZM35 38.0001V35.0001C35 33.3478 36.3487 32.0001 38 32.0001H41V35.0001C41 36.6524 39.6513 38.0001 38 38.0001H35Z" fill="#813CFF"></path>
  <path d="M83.3411 23.4961V26.926C82.0355 24.5569 79.7144 23.1425 76.5954 23.1425C71.8081 23.1425 68 27.032 68 31.9116C68 36.7912 71.8081 40.716 76.5954 40.716C79.7144 40.716 82.0355 39.3017 83.3411 36.8972V40.2917C83.3411 43.2972 80.875 45.2773 77.6834 45.2773C74.8546 45.2773 72.4972 43.9691 72.3884 41.8475H69.088C69.3056 46.3381 74.0567 48 77.7922 48C82.9059 48 86.6777 44.9945 86.6777 40.1503V23.4961H83.3411ZM77.2845 37.6751C73.9116 37.6751 71.2641 35.1293 71.2641 31.9116C71.2641 28.7293 73.9116 26.1834 77.2845 26.1834C80.7662 26.1834 83.3411 28.6232 83.3411 31.9116C83.3411 35.2354 80.7662 37.6751 77.2845 37.6751Z" fill="#141F2F"></path>
  <path d="M99.1968 23.1779C97.0933 23.1779 95.3887 24.274 94.337 26.0066V23.4961H90.9641V40.7514H94.337V31.0276C94.337 28.0221 96.4405 26.1127 99.088 26.1127C99.6683 26.1127 100.285 26.2188 100.829 26.3956V23.3901C100.321 23.2486 99.7408 23.1779 99.1968 23.1779Z" fill="#141F2F"></path>
  <path d="M110.45 23.1425C105.3 23.1425 101.311 27.0674 101.311 32.1591C101.311 37.2155 105.3 41.105 110.45 41.105C115.564 41.105 119.59 37.2155 119.59 32.1591C119.59 27.0674 115.564 23.1425 110.45 23.1425ZM110.45 26.2541C113.751 26.2541 116.326 28.8 116.326 32.1591C116.326 35.4475 113.751 37.9934 110.45 37.9934C107.114 37.9934 104.575 35.4475 104.575 32.1591C104.575 28.8 107.114 26.2541 110.45 26.2541Z" fill="#141F2F"></path>
  <path d="M126.898 40.7514H129.546L134.188 28.3757L138.794 40.7514H141.478L147.934 23.4961H144.343L140.136 35.8718L135.53 23.4961H132.81L128.277 35.8718L124.033 23.4961H120.479L126.898 40.7514Z" fill="#141F2F"></path>
  <path d="M160.16 26.6077V23.4961H155.372V18.8287H152.036V23.4961H148.59V26.6077H152.036V34.6343C152.036 38.842 154.502 40.9635 158.237 40.9635C158.854 40.9635 159.616 40.8928 160.16 40.7514V37.7459C159.797 37.8519 159.325 37.8873 158.927 37.8873C156.823 37.8873 155.372 36.968 155.372 34.5635V26.6077H160.16Z" fill="#141F2F"></path>
  <path d="M172.283 23.1425C169.744 23.1425 167.75 24.3801 166.625 26.5017V16H163.253V40.7514H166.625V31.2398C166.625 28.2343 168.548 26.2541 171.522 26.2541C174.459 26.2541 176.345 28.2343 176.345 31.2398V40.7514H179.682V30.8862C179.682 26.1127 176.853 23.1425 172.283 23.1425Z" fill="#141F2F"></path>
  <path d="M204.091 23.0365C201.842 23.0365 199.775 24.0972 198.723 25.5823C197.635 23.779 196.003 23.0365 193.682 23.0365C192.05 23.0365 189.947 23.5669 188.605 25.4762V23.3901H183.491V40.7514H188.605V31.1337C188.605 28.8707 190.092 27.8099 191.76 27.8099C193.646 27.8099 194.843 29.0829 194.843 31.1337V40.7514H199.956V31.1337C199.956 28.9061 201.48 27.8099 203.184 27.8099C205.034 27.8099 206.231 29.0829 206.231 31.1337V40.7514H211.381V29.9668C211.381 25.7591 208.334 23.0365 204.091 23.0365Z" fill="#141F2F"></path>
  <path d="M231.878 31.4873C231.878 26.7138 227.925 23.0365 223.101 23.0365C217.915 23.0365 213.853 26.926 213.853 31.9823C213.853 37.1094 217.951 41.105 223.21 41.105C227.671 41.105 231.044 38.6652 231.624 34.9171H226.619C226.329 36.1193 225.059 36.968 223.065 36.968C220.671 36.968 218.894 35.5182 218.531 33.2552H231.769C231.841 32.6895 231.878 31.8762 231.878 31.4873ZM218.785 30.0729C219.402 28.0221 220.925 27.0674 222.883 27.0674C224.769 27.0674 226.401 28.305 226.546 30.0729H218.785Z" fill="#141F2F"></path>
  <path d="M244.306 23.0365C242.275 23.0365 240.607 23.9912 239.483 25.653V23.3901H234.369V40.7514H239.483V31.558C239.483 29.295 240.861 27.8099 243 27.8099C245.104 27.8099 246.518 29.295 246.518 31.558V40.7514H251.632V30.9215C251.632 26.0066 248.876 23.0365 244.306 23.0365Z" fill="#141F2F"></path>
  <path d="M265.652 28.1282V23.3901H261.264V18.8287H256.15V23.3901H252.85V28.1282H256.15V33.6796C256.15 38.347 258.979 41.0343 263.186 41.0343C263.911 41.0343 264.963 40.9282 265.652 40.7514V36.1547C265.253 36.2608 264.782 36.2961 264.346 36.2961C262.569 36.2961 261.264 35.4829 261.264 33.6088V28.1282H265.652Z" fill="#141F2F"></path>
  <path d="M275.812 23.0365C270.553 23.0365 266.564 26.926 266.564 32.0884C266.564 37.2508 270.553 41.105 275.812 41.105C281.035 41.105 285.06 37.2508 285.06 32.0884C285.06 26.926 281.035 23.0365 275.812 23.0365ZM275.812 27.8099C278.206 27.8099 280.055 29.6133 280.055 32.0884C280.055 34.4928 278.206 36.3315 275.812 36.3315C273.382 36.3315 271.569 34.4928 271.569 32.0884C271.569 29.6133 273.382 27.8099 275.812 27.8099Z" fill="#141F2F"></path>
  <path d="M297.295 23.0365C295.301 23.0365 293.741 23.8851 292.689 25.3702V23.3901H287.576V40.7514H292.689V32.1945C292.689 28.9768 294.684 27.5271 297.15 27.5271C297.767 27.5271 298.383 27.6331 299 27.7746V23.2486C298.42 23.1425 297.839 23.0365 297.295 23.0365Z" fill="#141F2F"></path>
</svg>
