<?xml version="1.0" encoding="UTF-8"?>
<svg xmlns="http://www.w3.org/2000/svg" width="32" height="32" viewBox="0 0 32 32" fill="none">
  <path d="M25 30.9999V21.9259C26.4895 20.5907 27.6213 18.9042 28.2925 17.0199C28.9638 15.1356 29.1531 13.1133 28.8432 11.1371C28.5333 9.16094 27.7341 7.29365 26.5184 5.70521C25.3026 4.11678 23.7088 2.85764 21.8822 2.0424C20.0555 1.22717 18.054 0.881734 16.0598 1.03754C14.0655 1.19335 12.1419 1.84545 10.4641 2.93449C8.78619 4.02352 7.40734 5.51491 6.45301 7.2729C5.49868 9.03088 4.99919 10.9996 5 12.9999V13.9999L2.5 19.4999L5 20.9999V24.9999C5 25.7956 5.31607 26.5587 5.87868 27.1213C6.44129 27.6839 7.20435 27.9999 8 27.9999H13V30.9999" stroke="#6938EF" stroke-width="2" stroke-linecap="round" stroke-linejoin="round"></path>
  <path d="M17 17C19.2091 17 21 15.2091 21 13C21 10.7909 19.2091 9 17 9C14.7909 9 13 10.7909 13 13C13 15.2091 14.7909 17 17 17Z" stroke="#BDB4FE" stroke-width="2" stroke-linecap="round" stroke-linejoin="round"></path>
  <path d="M17 9V7" stroke="#BDB4FE" stroke-width="2" stroke-linecap="round" stroke-linejoin="round"></path>
  <path d="M19.828 10.172L21.243 8.75696" stroke="#BDB4FE" stroke-width="2" stroke-linecap="round" stroke-linejoin="round"></path>
  <path d="M21 13H23" stroke="#BDB4FE" stroke-width="2" stroke-linecap="round" stroke-linejoin="round"></path>
  <path d="M19.828 15.828L21.243 17.243" stroke="#BDB4FE" stroke-width="2" stroke-linecap="round" stroke-linejoin="round"></path>
  <path d="M17 17V19" stroke="#BDB4FE" stroke-width="2" stroke-linecap="round" stroke-linejoin="round"></path>
  <path d="M14.172 15.828L12.757 17.243" stroke="#BDB4FE" stroke-width="2" stroke-linecap="round" stroke-linejoin="round"></path>
  <path d="M13 13H11" stroke="#BDB4FE" stroke-width="2" stroke-linecap="round" stroke-linejoin="round"></path>
  <path d="M14.172 10.172L12.757 8.75696" stroke="#BDB4FE" stroke-width="2" stroke-linecap="round" stroke-linejoin="round"></path>
</svg>
